<?xml version="1.0" encoding="utf-8"?>
<!-- Svg Vector Icons : http://www.onlinewebfonts.com/icon -->
<!DOCTYPE svg PUBLIC "-//W3C//DTD SVG 1.1//EN" "http://www.w3.org/Graphics/SVG/1.1/DTD/svg11.dtd">
<svg version="1.1" xmlns="http://www.w3.org/2000/svg" xmlns:xlink="http://www.w3.org/1999/xlink" x="0px" y="0px" viewBox="0 0 1000 1000" enable-background="new 0 0 1000 1000" xml:space="preserve">
<metadata> Svg Vector Icons : http://www.onlinewebfonts.com/icon </metadata>
<g><path d="M960.6,366.5L659.4,65.3c-39.1-39.1-102.6-39.1-141.7,0L39.4,543.6c-39.1,39.1-39.1,102.6,0,141.7l219.3,219.3l0.2,0.2L252,898c88.1,88.1,230.8,88.1,318.9,0l-1.1,1.1l390.9-390.9C999.8,469.1,999.8,405.6,960.6,366.5z M305.1,876.1L168.3,741.9c0,0,0,0,0,0l-97.1-97.1c-19.6-19.6-19.6-51.4,0-70.9l89.1-86.5l378.3,375.6C479.8,921.8,363.8,934.8,305.1,876.1z M923.6,475.4L657.2,744.5L574,827.6L195.7,451.9L545.4,99.7c19.5-19.5,51.3-19.5,70.9,0l307.5,304.8C943.2,424.1,943.2,455.8,923.6,475.4z"/></g>
</svg>