<?xml version="1.0" encoding="utf-8"?>
<!-- Svg Vector Icons : http://www.onlinewebfonts.com/icon -->
<!DOCTYPE svg PUBLIC "-//W3C//DTD SVG 1.1//EN" "http://www.w3.org/Graphics/SVG/1.1/DTD/svg11.dtd">
<svg version="1.1" xmlns="http://www.w3.org/2000/svg" xmlns:xlink="http://www.w3.org/1999/xlink" x="0px" y="0px" viewBox="0 0 1000 1000" enable-background="new 0 0 1000 1000" xml:space="preserve">
<metadata> Svg Vector Icons : http://www.onlinewebfonts.com/icon </metadata>
<g><path d="M973.9,389.8c-19.6-41.8-43.3-80.3-70.2-115.4c-18.4,16.7-37.4,33.6-56.9,50.8C770.8,392,661.3,491,655.9,504.3c-5.4,13.4-37.3,130.8-216.6,177.1c-41.4,8.2-104.8,56.2-117.9,44.3c-28.1-18.3,1-138.5,24.6-190.2c23.6-51.6,77.9-139.7,122.1-147c44.2-7.3,159.4-109.9,246.5-186.4c20.9-18.4,41.6-36.3,61.9-53.5C582.4,2.5,325.8-30,179.6,60.1C-27.5,187.7-47.7,487,134.4,728.7C316.6,970.4,677.9,1059,890.5,932.6c47.3-26-55.8-199.5-55.6-280.5C835.2,571.1,1011.4,467,973.9,389.8z M458.5,68.6c54.4,0,98.4,39.8,98.4,89c0,49.2-44.1,89-98.4,89c-54.4,0-98.4-39.8-98.4-89C360,108.5,404.1,68.6,458.5,68.6z M169.1,447.1c-54.4,0-98.4-39.8-98.4-89c0-49.2,44.1-89,98.4-89c54.4,0,98.4,39.8,98.4,89C267.5,407.2,223.5,447.1,169.1,447.1z M677.7,912.2c-54.4,0-98.4-39.8-98.4-89c0-49.2,44.1-89,98.4-89c54.4,0,98.5,39.8,98.5,89C776.2,872.3,732.1,912.2,677.7,912.2z"/><path d="M634.2,428.3l-27.3-23.9c-15-13.1-38.4-12.3-52.2,1.9c0,0-17.1,17.6-32.8,39.5c-9.3-0.7-19.8,0-31.5,2.7c-71.5,16.4-96.6,85.5-96.6,85.5s-35,114.2-16.3,126.4c8.7,7.9,40.4-33.9,68-39.3c135.2-34.9,147.3-92.4,145.2-118.3c23.6-13.7,42-28.1,42-28.1C648.5,462.3,649.2,441.4,634.2,428.3z"/><path d="M986.4,83.5c-29.5-26.6-221.6,117.1-353.7,233.1c-16.1,14.2-19.9,17.5-19.9,17.5c-15,13.1-15,34.6,0,47.7l36.3,31.9c15,13.1,39.3,13,54.2-0.2c0,0,2.1-1.9,17.3-15.2C852.6,282.3,1016.5,110.7,986.4,83.5z"/></g>
</svg>