<?xml version="1.0" encoding="utf-8"?>
<!-- Svg Vector Icons : http://www.onlinewebfonts.com/icon -->
<!DOCTYPE svg PUBLIC "-//W3C//DTD SVG 1.1//EN" "http://www.w3.org/Graphics/SVG/1.1/DTD/svg11.dtd">
<svg version="1.1" xmlns="http://www.w3.org/2000/svg" xmlns:xlink="http://www.w3.org/1999/xlink" x="0px" y="0px" viewBox="0 0 1000 1000" enable-background="new 0 0 1000 1000" xml:space="preserve">
<metadata> Svg Vector Icons : http://www.onlinewebfonts.com/icon </metadata>
<g><g transform="translate(0.000000,511.000000) scale(0.100000,-0.100000)"><path d="M8218.3,5015.4c-264.5-77-347.4-138.2-787.7-572.5c-260.6-258.6-424.4-436.3-448.1-485.6c-49.4-106.6-47.4-272.4,3.9-385c29.6-65.1,213.2-262.6,708.7-760l671.2-671.2L5199.8-1025.4L2031.4-4193.9l-716.6-112.5c-394.8-63.2-740.3-114.5-769.9-116.5c-51.3,0-51.3,2-43.4,104.6c5.9,55.3,31.6,367.2,55.3,690.9l45.4,590.3L3506.1-133.1c1599,1599,2905.9,2915.8,2905.9,2925.6c0,11.9-69.1,88.8-154,173.7l-152,152L3178.4,190.6L248.8-2739l-79-1040.4c-43.4-570.5-75-1044.3-69.1-1050.2c5.9-5.9,479.7,25.7,1054.2,69.1l1042.3,80.9l3275.1,3273.1c2511.1,2509.1,3282.9,3290.9,3312.5,3358c21.7,47.4,41.5,128.3,41.5,177.7c2,195.4,0,199.4-738.3,939.7l-689,690.9l361.3,359.3c215.2,213.2,392.9,375.1,444.2,398.8c294.2,148.1,615.9,69.1,929.8-227c264.5-248.7,379-463.9,379-716.6c2-223.1-53.3-331.7-286.3-570.5l-197.4-203.3l161.9-161.9l161.9-161.9l159.9,157.9c173.7,173.7,225.1,256.6,300.1,493.5c175.7,560.6,84.9,1028.5-278.3,1413.5c-231,246.8-493.5,414.6-748.2,479.7C8630.9,5062.7,8368.3,5058.8,8218.3,5015.4z"/></g></g>
</svg>