<svg xmlns="http://www.w3.org/2000/svg" viewBox="0 0 506.65 582.43"><defs><style>.cls-1,.cls-2{fill:none;stroke:#000;stroke-linecap:round;stroke-linejoin:round;}.cls-1{stroke-width:18px;}.cls-2{stroke-width:16.75px;}</style></defs><g id="Layer_2" data-name="Layer 2"><g id="Layer_2-2" data-name="Layer 2"><path class="cls-1" d="M332.5,345.36c0-31.89,19.38-68.93,43.3-82.74,23.75-13.71,43.3,1.07,43.3,32.74s-43.3,70.92-43.3,82.73v40.83"/><ellipse class="cls-1" cx="375.8" cy="454.19" rx="6.9" ry="3.9" transform="translate(-189.27 622.14) rotate(-66.95)"/><polygon class="cls-2" points="498.27 432.64 253.32 574.06 253.32 291.22 498.27 149.8 498.27 432.64"/><path class="cls-1" d="M87.55,295.36c0-31.89,19.39-46.54,43.3-32.74,23.75,13.72,43.3,51.07,43.3,82.74s-43.3,20.92-43.3,32.73v40.83"/><ellipse class="cls-1" cx="130.85" cy="454.19" rx="3.9" ry="6.9" transform="translate(-167.39 87.5) rotate(-23.05)"/><polygon class="cls-2" points="253.32 574.06 8.38 432.64 8.38 149.8 253.32 291.22 253.32 574.06"/><path class="cls-1" d="M174,154c-27.61-15.94-30.61-40.06-6.7-53.87s65.87-12,93.3,3.87-3.52,48,6.7,53.87l35.36,20.41"/><ellipse class="cls-1" cx="333.22" cy="195.93" rx="3.9" ry="6.9" transform="translate(98.42 503) rotate(-83.05)"/><polygon class="cls-2" points="498.27 149.8 253.32 291.22 8.38 149.8 253.32 8.38 498.27 149.8"/></g></g></svg>