<?xml version="1.0" encoding="utf-8"?>
<!-- Svg Vector Icons : http://www.onlinewebfonts.com/icon -->
<!DOCTYPE svg PUBLIC "-//W3C//DTD SVG 1.1//EN" "http://www.w3.org/Graphics/SVG/1.1/DTD/svg11.dtd">
<svg version="1.1" xmlns="http://www.w3.org/2000/svg" xmlns:xlink="http://www.w3.org/1999/xlink" x="0px" y="0px" viewBox="0 0 1000 1000" enable-background="new 0 0 1000 1000" xml:space="preserve">
<metadata> Svg Vector Icons : http://www.onlinewebfonts.com/icon </metadata>
<g><g transform="matrix(1 0 0 -1 0 960)"><path d="M522.9,245.2c-7.6-8.2-16.6-12.2-26.9-12.2c-10.3,0-19.3,4.1-26.9,12.2L159.4,593.1c-5.4,5.4-8.2,10.9-8.2,16.3c0,9.3,7.4,13.9,22,13.9h204.2v285.8c0,11.4,3.9,21.1,11.8,29c7.9,7.9,17.6,11.8,29,11.8h163.3c11.4,0,21.1-3.9,29-11.8c7.9-7.9,11.8-17.6,11.8-29V623.3h200.1c14.2,0,21.2-4.6,21.2-13.9c0-5.4-2.7-10.9-8.2-16.3L522.9,245.2z M50.8-30v204.2c0,11.4,3.9,21.1,11.8,29c7.9,7.9,17.6,11.8,29,11.8h816.7c11.4,0,21.1-3.9,29-11.8c7.9-7.9,11.8-17.6,11.8-29V-30H50.8z M785.8,92.5h81.7v40.8h-81.7V92.5z"/></g></g>
</svg>